REM DIRINDEX 1\2,1\3
REM DIRNAME cjc080,folder01,folder02
TITLE ""
FILE "ScrambleS_3Part2_Theme174.mp3" MP3
  TRACK 01 AUDIO
    TITLE "3:cjc080_0909"
    INDEX 01 00:00:00
  TRACK 02 AUDIO
    TITLE "0:"
    INDEX 01 00:02:06
  TRACK 03 AUDIO
    TITLE "2:cjc080_0910"
    INDEX 01 00:03:29
  TRACK 04 AUDIO
    TITLE "0:"
    INDEX 01 00:05:65
  TRACK 05 AUDIO
    TITLE "2:cjc080_0911"
    INDEX 01 00:07:09
  TRACK 06 AUDIO
    TITLE "0:"
    INDEX 01 00:11:15
